<svg width="343" height="51" viewBox="0 0 343 51" fill="none" xmlns="http://www.w3.org/2000/svg">
<rect width="343" height="51" rx="25.5" fill="#F6F6F6"/>
<path d="M128.156 25.6797C128.156 26.7943 127.969 27.7682 127.594 28.6016C127.219 29.4297 126.688 30.0625 126 30.5C125.312 30.9375 124.51 31.1562 123.594 31.1562C122.698 31.1562 121.904 30.9375 121.211 30.5C120.518 30.0573 119.979 29.4297 119.594 28.6172C119.214 27.7995 119.018 26.8542 119.008 25.7812V24.9609C119.008 23.8672 119.198 22.901 119.578 22.0625C119.958 21.224 120.495 20.5833 121.188 20.1406C121.885 19.6927 122.682 19.4688 123.578 19.4688C124.49 19.4688 125.292 19.6901 125.984 20.1328C126.682 20.5703 127.219 21.2083 127.594 22.0469C127.969 22.8802 128.156 23.8516 128.156 24.9609V25.6797ZM126.664 24.9453C126.664 23.5964 126.393 22.5625 125.852 21.8438C125.31 21.1198 124.552 20.7578 123.578 20.7578C122.63 20.7578 121.883 21.1198 121.336 21.8438C120.794 22.5625 120.516 23.5625 120.5 24.8438V25.6797C120.5 26.987 120.773 28.0156 121.32 28.7656C121.872 29.5104 122.63 29.8828 123.594 29.8828C124.562 29.8828 125.312 29.5312 125.844 28.8281C126.375 28.1198 126.648 27.1068 126.664 25.7891V24.9453ZM137.094 31H135.648V23.7422H131.758V31H130.305V22.5469H137.094V31ZM142.18 28.8828L144.148 22.5469H145.695L142.297 32.3047C141.771 33.7109 140.935 34.4141 139.789 34.4141L139.516 34.3906L138.977 34.2891V33.1172L139.367 33.1484C139.857 33.1484 140.237 33.0495 140.508 32.8516C140.784 32.6536 141.01 32.2917 141.188 31.7656L141.508 30.9062L138.492 22.5469H140.07L142.18 28.8828ZM150.703 23.0312C151.766 23.0312 152.615 23.388 153.25 24.1016C153.891 24.8099 154.211 25.7448 154.211 26.9062V27.0391C154.211 27.8359 154.057 28.5495 153.75 29.1797C153.443 29.8047 153 30.2917 152.422 30.6406C151.849 30.9844 151.188 31.1562 150.438 31.1562C149.302 31.1562 148.388 30.7786 147.695 30.0234C147.003 29.263 146.656 28.2448 146.656 26.9688V26.2656C146.656 24.4896 146.984 23.0781 147.641 22.0312C148.302 20.9844 149.276 20.3464 150.562 20.1172C151.292 19.987 151.784 19.8281 152.039 19.6406C152.294 19.4531 152.422 19.1953 152.422 18.8672H153.609C153.609 19.5182 153.461 20.026 153.164 20.3906C152.872 20.7552 152.404 21.013 151.758 21.1641L150.68 21.4062C149.82 21.6094 149.174 21.9531 148.742 22.4375C148.315 22.9167 148.036 23.5573 147.906 24.3594C148.672 23.474 149.604 23.0312 150.703 23.0312ZM150.422 24.2188C149.714 24.2188 149.151 24.4583 148.734 24.9375C148.318 25.4115 148.109 26.0703 148.109 26.9141V27.0391C148.109 27.9453 148.318 28.6641 148.734 29.1953C149.156 29.7214 149.724 29.9844 150.438 29.9844C151.156 29.9844 151.724 29.7188 152.141 29.1875C152.557 28.6562 152.766 27.8802 152.766 26.8594C152.766 26.0625 152.555 25.4245 152.133 24.9453C151.716 24.4609 151.146 24.2188 150.422 24.2188ZM162.766 22.5469V31H161.312V23.7422H158.438L158.266 26.9062C158.172 28.3594 157.927 29.3984 157.531 30.0234C157.141 30.6484 156.518 30.974 155.664 31H155.086V29.7266L155.5 29.6953C155.969 29.6432 156.305 29.3724 156.508 28.8828C156.711 28.3932 156.841 27.487 156.898 26.1641L157.055 22.5469H162.766ZM170.555 22.5469H172V31H170.555V24.8359L166.656 31H165.211V22.5469H166.656V28.7188L170.555 22.5469ZM176.953 27.3984H175.898V31H174.445V22.5469H175.898V26.125H176.844L179.688 22.5469H181.438L178.094 26.6094L181.719 31H179.883L176.953 27.3984ZM182.406 26.6953C182.406 25.8672 182.568 25.1224 182.891 24.4609C183.219 23.7995 183.672 23.2891 184.25 22.9297C184.833 22.5703 185.497 22.3906 186.242 22.3906C187.393 22.3906 188.323 22.7891 189.031 23.5859C189.745 24.3828 190.102 25.4427 190.102 26.7656V26.8672C190.102 27.6901 189.943 28.4297 189.625 29.0859C189.312 29.737 188.862 30.2448 188.273 30.6094C187.69 30.974 187.018 31.1562 186.258 31.1562C185.112 31.1562 184.182 30.7578 183.469 29.9609C182.76 29.1641 182.406 28.1094 182.406 26.7969V26.6953ZM183.859 26.8672C183.859 27.8047 184.076 28.5573 184.508 29.125C184.945 29.6927 185.529 29.9766 186.258 29.9766C186.992 29.9766 187.576 29.6901 188.008 29.1172C188.44 28.5391 188.656 27.7318 188.656 26.6953C188.656 25.7682 188.435 25.0182 187.992 24.4453C187.555 23.8672 186.971 23.5781 186.242 23.5781C185.529 23.5781 184.953 23.862 184.516 24.4297C184.078 24.9974 183.859 25.8099 183.859 26.8672ZM192.047 31V22.5469H195.344C196.469 22.5469 197.331 22.7448 197.93 23.1406C198.534 23.5312 198.836 24.1068 198.836 24.8672C198.836 25.2578 198.719 25.612 198.484 25.9297C198.25 26.2422 197.904 26.4818 197.445 26.6484C197.956 26.7682 198.365 27.0026 198.672 27.3516C198.984 27.7005 199.141 28.1172 199.141 28.6016C199.141 29.3776 198.854 29.9714 198.281 30.3828C197.714 30.7943 196.909 31 195.867 31H192.047ZM193.492 27.2891V29.8359H195.883C196.487 29.8359 196.938 29.724 197.234 29.5C197.536 29.276 197.688 28.9609 197.688 28.5547C197.688 27.7109 197.068 27.2891 195.828 27.2891H193.492ZM193.492 26.1328H195.359C196.714 26.1328 197.391 25.737 197.391 24.9453C197.391 24.1536 196.75 23.7448 195.469 23.7188H193.492V26.1328ZM206.273 31C206.19 30.8333 206.122 30.5365 206.07 30.1094C205.398 30.8073 204.596 31.1562 203.664 31.1562C202.831 31.1562 202.146 30.9219 201.609 30.4531C201.078 29.9792 200.812 29.3802 200.812 28.6562C200.812 27.776 201.146 27.0938 201.812 26.6094C202.484 26.1198 203.427 25.875 204.641 25.875H206.047V25.2109C206.047 24.7057 205.896 24.3047 205.594 24.0078C205.292 23.7057 204.846 23.5547 204.258 23.5547C203.742 23.5547 203.31 23.6849 202.961 23.9453C202.612 24.2057 202.438 24.5208 202.438 24.8906H200.984C200.984 24.4688 201.133 24.0625 201.43 23.6719C201.732 23.276 202.138 22.9635 202.648 22.7344C203.164 22.5052 203.729 22.3906 204.344 22.3906C205.318 22.3906 206.081 22.6354 206.633 23.125C207.185 23.6094 207.471 24.2786 207.492 25.1328V29.0234C207.492 29.7995 207.591 30.4167 207.789 30.875V31H206.273ZM203.875 29.8984C204.328 29.8984 204.758 29.7812 205.164 29.5469C205.57 29.3125 205.865 29.0078 206.047 28.6328V26.8984H204.914C203.143 26.8984 202.258 27.4167 202.258 28.4531C202.258 28.9062 202.409 29.2604 202.711 29.5156C203.013 29.7708 203.401 29.8984 203.875 29.8984ZM215.914 23.7188H213.078V31H211.633V23.7188H208.852V22.5469H215.914V23.7188ZM218.898 25.4609H221.094C222.052 25.4714 222.81 25.7214 223.367 26.2109C223.924 26.7005 224.203 27.3646 224.203 28.2031C224.203 29.0469 223.917 29.724 223.344 30.2344C222.771 30.7448 222 31 221.031 31H217.453V22.5469H218.898V25.4609ZM218.898 26.6406V29.8203H221.047C221.589 29.8203 222.008 29.6823 222.305 29.4062C222.602 29.125 222.75 28.7422 222.75 28.2578C222.75 27.7891 222.604 27.4062 222.312 27.1094C222.026 26.8073 221.622 26.651 221.102 26.6406H218.898Z" fill="#BDBDBD"/>
</svg>
